<svg width="423" height="858" viewBox="0 0 423 858" fill="none" xmlns="http://www.w3.org/2000/svg">
<g id="Devices / Apple / iPhone 12 | 12 Pro">
<g id="Buttons">
<path id="Power Button" d="M420 220H421.5C422.328 220 423 220.672 423 221.5V319.5C423 320.328 422.328 321 421.5 321H420V220Z" fill="#1C3343"/>
<path id="Volume Down" d="M3 342L1.49999 342C0.671567 342 -5.1865e-06 341.328 -5.11407e-06 340.5L4.38696e-08 281.5C1.16293e-07 280.672 0.671573 280 1.5 280L3.00001 280L3 342Z" fill="#1C3343"/>
<path id="Volumn Up" d="M3 260L1.49999 260C0.671567 260 -5.1865e-06 259.328 -5.11407e-06 258.5L4.38696e-08 199.5C1.16293e-07 198.672 0.671573 198 1.5 198L3.00001 198L3 260Z" fill="#213744"/>
<path id="Mute" d="M3 168L1.5 168C0.671571 168 -2.32548e-06 167.328 -2.25305e-06 166.5L2.82209e-07 137.5C3.54632e-07 136.672 0.671573 136 1.5 136L3 136L3 168Z" fill="#213744"/>
</g>
<path id="Device Surround" d="M3 91C3 66.8033 3 54.705 6.18133 44.9139C12.611 25.1254 28.1254 9.61099 47.9139 3.18133C57.705 0 69.8033 0 94 0H329C353.197 0 365.295 0 375.086 3.18133C394.875 9.61099 410.389 25.1254 416.819 44.9139C420 54.705 420 66.8033 420 91V767C420 791.197 420 803.295 416.819 813.086C410.389 832.875 394.875 848.389 375.086 854.819C365.295 858 353.197 858 329 858H94C69.8033 858 57.705 858 47.9139 854.819C28.1254 848.389 12.611 832.875 6.18133 813.086C3 803.295 3 791.197 3 767V91Z" fill="#213744"/>
<path id="Highlight Band (Stroke)" fill-rule="evenodd" clip-rule="evenodd" d="M329.4 2H93.6C69.6978 2 57.9838 2.01234 48.5319 5.08344C29.3523 11.3153 14.3153 26.3523 8.08344 45.5319C5.01234 54.9838 5 66.6978 5 90.6V767.4C5 791.302 5.01234 803.016 8.08344 812.468C14.3153 831.648 29.3523 846.685 48.5319 852.917C57.9838 855.988 69.6978 856 93.6 856H329.4C353.302 856 365.016 855.988 374.468 852.917C393.648 846.685 408.685 831.648 414.917 812.468C417.988 803.016 418 791.302 418 767.4V90.6C418 66.6978 417.988 54.9838 414.917 45.5319C408.685 26.3523 393.648 11.3153 374.468 5.08344C365.016 2.01234 353.302 2 329.4 2ZM7.13238 45.2229C4 54.8634 4 66.7756 4 90.6V767.4C4 791.224 4 803.137 7.13238 812.777C13.4631 832.261 28.7389 847.537 48.2229 853.868C57.8634 857 69.7756 857 93.6 857H329.4C353.224 857 365.137 857 374.777 853.868C394.261 847.537 409.537 832.261 415.868 812.777C419 803.137 419 791.224 419 767.4V90.6C419 66.7756 419 54.8634 415.868 45.2229C409.537 25.7389 394.261 10.4631 374.777 4.13238C365.137 1 353.224 1 329.4 1H93.6C69.7756 1 57.8634 1 48.2229 4.13238C28.7389 10.4631 13.4631 25.7389 7.13238 45.2229Z" fill="#8EADC1"/>
<path id="Background" d="M8 89C8 66.6646 8 55.4969 10.9366 46.459C16.8717 28.1927 31.1927 13.8717 49.459 7.93661C58.4969 5 69.6646 5 92 5H331C353.335 5 364.503 5 373.541 7.93661C391.807 13.8717 406.128 28.1927 412.063 46.459C415 55.4969 415 66.6646 415 89V769C415 791.335 415 802.503 412.063 811.541C406.128 829.807 391.807 844.128 373.541 850.063C364.503 853 353.335 853 331 853H92C69.6646 853 58.4969 853 49.459 850.063C31.1927 844.128 16.8717 829.807 10.9366 811.541C8 802.503 8 791.335 8 769V89Z" fill="#121515"/>
<g id="Antenna Bands">
<rect id="Antenna" x="331" width="6" height="5" fill="#36454C"/>
<rect id="Antenna_2" x="415" y="86" width="5" height="6" fill="#36454C"/>
<rect id="Antenna_3" x="3" y="86" width="5" height="6" fill="#36454C"/>
<rect id="Antenna_4" x="3" y="766" width="5" height="6" fill="#36454C"/>
<rect id="Antenna_5" x="415" y="766" width="5" height="6" fill="#36454C"/>
<rect id="Antenna_6" x="86" y="853" width="6" height="5" fill="#36454C"/>
</g>
<g id="Screen">
<mask id="mask0" mask-type="alpha" maskUnits="userSpaceOnUse" x="22" y="19" width="379" height="820">
<path id="Screen Shape" d="M109 29V24.5C109 21.4625 106.538 19 103.5 19L90.62 19C70.4842 19 60.4163 19 52.3867 22.0341C39.7659 26.8031 29.8031 36.7659 25.0341 49.3867C22 57.4163 22 67.4842 22 87.62V770.38C22 790.516 22 800.584 25.0341 808.613C29.8031 821.234 39.7659 831.197 52.3867 835.966C60.4163 839 70.4842 839 90.62 839H332.38C352.516 839 362.584 839 370.613 835.966C383.234 831.197 393.197 821.234 397.966 808.613C401 800.584 401 790.516 401 770.38V87.62C401 67.4842 401 57.4163 397.966 49.3867C393.197 36.7659 383.234 26.8031 370.613 22.0341C362.584 19 352.516 19 332.38 19L319.5 19C316.462 19 314 21.4625 314 24.5V29L313.928 28.9978L314 29.5C314 41.3741 304.374 51 292.5 51H130.5C118.626 51 109 41.3741 109 29.5L109.072 28.9978L109 29Z" fill="white"/>
</mask>
<g mask="url(#mask0)">
<rect id="Screen [CHANGE ME]" x="22" y="19" width="379" height="820" fill="white"/>
</g>
</g>
<g id="Camera">
<path id="Oval" fill-rule="evenodd" clip-rule="evenodd" d="M254 40C258.418 40 262 36.4183 262 32C262 27.5817 258.418 24 254 24C249.582 24 246 27.5817 246 32C246 36.4183 249.582 40 254 40Z" fill="#262C2D"/>
<path id="Oval_2" fill-rule="evenodd" clip-rule="evenodd" d="M254 37C256.761 37 259 34.7614 259 32C259 29.2386 256.761 27 254 27C251.239 27 249 29.2386 249 32C249 34.7614 251.239 37 254 37Z" fill="#121515"/>
<path id="Oval_3" opacity="0.4" fill-rule="evenodd" clip-rule="evenodd" d="M254 31C254.552 31 255 30.5523 255 30C255 29.4477 254.552 29 254 29C253.448 29 253 29.4477 253 30C253 30.5523 253.448 31 254 31Z" fill="#636F73"/>
</g>
<g id="Speaker">
<path id="Speaker_2" fill-rule="evenodd" clip-rule="evenodd" d="M187 32C187 30.3431 188.343 29 190 29H233C234.657 29 236 30.3431 236 32V32C236 33.6569 234.657 35 233 35H190C188.343 35 187 33.6569 187 32V32Z" fill="#262C2D"/>
</g>
</g>
</svg>
